<svg id="Capa_1" data-name="Capa 1" xmlns="http://www.w3.org/2000/svg" viewBox="0 0 841.89 255.12"><defs><style>.cls-1{fill:#fff;}</style></defs><path class="cls-1" d="M6.05,169.19a13.27,13.27,0,0,1,9.33-22.92,13.35,13.35,0,1,1,0,26.7A12.84,12.84,0,0,1,6.05,169.19Z"/><path class="cls-1" d="M118.26,90.44a39.52,39.52,0,0,1,15.52,15.44,46.07,46.07,0,0,1,5.63,23A46.51,46.51,0,0,1,133.78,152a39.27,39.27,0,0,1-15.52,15.52A45.59,45.59,0,0,1,95.81,173q-13.08,0-22.06-6.57A3.38,3.38,0,0,0,68.3,169v30.65a3.35,3.35,0,0,1-3.36,3.36H51.56a3.36,3.36,0,0,1-3.37-3.36V89.3a3.36,3.36,0,0,1,3.37-3.36H64a3.36,3.36,0,0,1,3.37,3.36h0a3.37,3.37,0,0,0,5.48,2.61A31.78,31.78,0,0,1,79.65,88,41.47,41.47,0,0,1,95.81,85,45.7,45.7,0,0,1,118.26,90.44Zm-6.44,57.92Q119,141,119,128.89t-7.16-19.47q-7.16-7.4-18.26-7.4a26,26,0,0,0-13,3.3,23.87,23.87,0,0,0-9.17,9.41,31.35,31.35,0,0,0,0,28.32,23.87,23.87,0,0,0,9.17,9.41,25.86,25.86,0,0,0,13,3.3Q104.66,155.76,111.82,148.36Z"/><path class="cls-1" d="M227.44,152.06l1.39,1.63a7.43,7.43,0,0,1-1,10.69,37.06,37.06,0,0,1-8.94,5.05A53.33,53.33,0,0,1,198.93,173q-14.16,0-24.93-5.63a40.44,40.44,0,0,1-16.65-15.69,44.23,44.23,0,0,1-5.88-22.76,45,45,0,0,1,5.71-22.6A40.79,40.79,0,0,1,173,90.6,45.81,45.81,0,0,1,195.71,85a46.3,46.3,0,0,1,22,5.23,39.33,39.33,0,0,1,15.69,15,41.07,41.07,0,0,1,5.32,15.61,7.49,7.49,0,0,1-5.94,8.41l-47.15,9.22c-6.6,1.29-8.37,10.21-2.56,13.58l.14.08a35.35,35.35,0,0,0,34.65-1.42A7.36,7.36,0,0,1,227.44,152.06ZM177.78,108.3q-6.84,7.23-6.84,19.47v.16l38.63-7.42a7.45,7.45,0,0,0,3.9-12.56,25.18,25.18,0,0,0-2.39-2.07,24.72,24.72,0,0,0-15.37-4.82Q184.61,101.06,177.78,108.3Z"/><path class="cls-1" d="M304.15,160.65a8,8,0,0,1-4.88,10.51c-.38.13-.76.25-1.16.36a38.57,38.57,0,0,1-10.7,1.45q-14.16,0-21.88-7.4T257.81,144V74.94a8,8,0,0,1,8-8h4.15a8,8,0,0,1,8,8V78.6a8,8,0,0,0,8,8h7a8,8,0,0,1,8,8v.13a8,8,0,0,1-8,8h-7a8,8,0,0,0-8,8v32.88c0,4.18,1.05,7.38,3.14,9.57s5,3.3,8.77,3.3a21.55,21.55,0,0,0,4.94-.54,8,8,0,0,1,9.38,4.79Z"/><path class="cls-1" d="M369.32,85.07A3.48,3.48,0,0,1,373,88.58v15.54a25,25,0,0,0-4.67-.49q-11.74,0-18.34,6.84t-6.59,19.71v38.16a3.5,3.5,0,0,1-3.51,3.5h-13.1a3.49,3.49,0,0,1-3.5-3.5V89.44a3.5,3.5,0,0,1,3.5-3.5h12.14a3.5,3.5,0,0,1,3.5,3.5h0a3.49,3.49,0,0,0,5.66,2.73Q356,85.82,369.32,85.07Z"/><path class="cls-1" d="M404.37,167.34A41,41,0,0,1,388,151.65a44.32,44.32,0,0,1-5.87-22.76A43.9,43.9,0,0,1,388,106.21,41.26,41.26,0,0,1,404.37,90.6a52.15,52.15,0,0,1,47.14,0,41.23,41.23,0,0,1,16.32,15.61,43.81,43.81,0,0,1,5.88,22.68,44.23,44.23,0,0,1-5.88,22.76,41,41,0,0,1-16.32,15.69,52.15,52.15,0,0,1-47.14,0Zm41.83-19q7.23-7.41,7.24-19.47t-7.24-19.47Q439,102,427.86,102t-18.26,7.4q-7.16,7.41-7.16,19.47t7.16,19.47q7.15,7.39,18.26,7.4T446.2,148.36Z"/><path class="cls-1" d="M500.49,165.65Q493,158.33,493,145V59.86a7.38,7.38,0,0,1,7.38-7.39h5.34a7.39,7.39,0,0,1,7.39,7.39v83.67q0,12.87,12.06,12.87h.08a7.43,7.43,0,0,1,7.67,6.85l.09,1.57a7.33,7.33,0,0,1-6.1,7.73,36.62,36.62,0,0,1-5.6.42Q508,173,500.49,165.65Z"/><path class="cls-1" d="M614.34,152.06l1.39,1.63a7.43,7.43,0,0,1-1,10.69,37.06,37.06,0,0,1-8.94,5.05A53.33,53.33,0,0,1,585.83,173q-14.15,0-24.93-5.63a40.44,40.44,0,0,1-16.65-15.69,44.23,44.23,0,0,1-5.87-22.76,44.92,44.92,0,0,1,5.71-22.6A40.69,40.69,0,0,1,559.85,90.6,45.84,45.84,0,0,1,582.62,85a46.36,46.36,0,0,1,22,5.23,39.37,39.37,0,0,1,15.68,15,40.9,40.9,0,0,1,5.32,15.61,7.49,7.49,0,0,1-5.94,8.41l-47.15,9.22c-6.6,1.29-8.37,10.21-2.56,13.58l.14.08a35.35,35.35,0,0,0,34.65-1.42A7.36,7.36,0,0,1,614.34,152.06ZM564.68,108.3q-6.84,7.23-6.84,19.47v.16l38.63-7.42a7.45,7.45,0,0,0,3.9-12.56,25.18,25.18,0,0,0-2.39-2.07,24.71,24.71,0,0,0-15.36-4.82Q571.52,101.06,564.68,108.3Z"/><path class="cls-1" d="M720.16,94.46Q730,104,730,122.62v45.86a3.36,3.36,0,0,1-3.37,3.36H713.23a3.35,3.35,0,0,1-3.36-3.36V125.19q0-11.26-5.31-17t-15.13-5.71q-11.1,0-17.53,6.67t-6.43,19.23v40.07a3.36,3.36,0,0,1-3.37,3.36H648.72a3.35,3.35,0,0,1-3.36-3.36V89.3a3.36,3.36,0,0,1,3.36-3.36h12.41a3.37,3.37,0,0,1,3.37,3.36h0A3.38,3.38,0,0,0,669.94,92,33,33,0,0,1,677.05,88,45.09,45.09,0,0,1,694.1,85Q710.34,85,720.16,94.46Z"/><path class="cls-1" d="M840.5,55.79V168.53a3.32,3.32,0,0,1-3.32,3.31H824.51a3.32,3.32,0,0,1-3.32-3.31h0a3.32,3.32,0,0,0-5.4-2.57,31.07,31.07,0,0,1-6.9,3.95A41.56,41.56,0,0,1,792.72,173a45.27,45.27,0,0,1-22.29-5.47A39.27,39.27,0,0,1,754.91,152a46.51,46.51,0,0,1-5.63-23.09,46.07,46.07,0,0,1,5.63-23,39.52,39.52,0,0,1,15.52-15.44A45.38,45.38,0,0,1,792.72,85a40.84,40.84,0,0,1,15.6,2.9A31.52,31.52,0,0,1,815,91.6a3.32,3.32,0,0,0,5.36-2.6V55.79a3.32,3.32,0,0,1,3.31-3.32h13.48A3.32,3.32,0,0,1,840.5,55.79Zm-32.34,96.67a23.87,23.87,0,0,0,9.17-9.41,31.35,31.35,0,0,0,0-28.32,23.87,23.87,0,0,0-9.17-9.41,27.37,27.37,0,0,0-26.06,0,23.87,23.87,0,0,0-9.17,9.41,31.35,31.35,0,0,0,0,28.32,23.87,23.87,0,0,0,9.17,9.41,27.37,27.37,0,0,0,26.06,0Z"/></svg>